<?xml version="1.0" encoding="UTF-8" standalone="no"?>
<svg xmlns="http://www.w3.org/2000/svg" xmlns:dc="http://purl.org/dc/elements/1.1/" xmlns:cc="http://creativecommons.org/ns#" xmlns:rdf="http://www.w3.org/1999/02/22-rdf-syntax-ns#" viewBox="0 0 434.21 574.975">
  <metadata>
    <rdf:RDF>
      <cc:Work>
        <dc:format>
          image/svg+xml
        </dc:format>
        <dc:type rdf:resource="http://purl.org/dc/dcmitype/StillImage"/>
        <dc:title/>
      </cc:Work>
    </rdf:RDF>
  </metadata>
  <path d="M220.67 561.475c-5.527-40.744-10.315-65.278-15.238-78.07-7.736-20.103-21.93-43.974-33.496-56.34l-5.837-6.24 7.34-7.297c4.39-4.362 9.4-10.743 12.45-15.858 4.53-7.607 5.1-9.194 5.1-14.243 0-6.628-2.6-10.952-6.57-10.952-2.8 0-7.91 6.307-8.95 11.058-.36 1.618-.95 2.94-1.32 2.934-.37-.004-1.7-1.802-2.95-3.995-3.04-5.315-12.85-10.803-27.62-15.45-3.22-1.01-1.34-1.508 9.96-2.646 6-.604 12.12-1.723 13.59-2.488 3.11-1.61 4.49-4.908 2.87-6.863-3.06-3.68-9.79-2.232-13.9 2.992l-2.03 2.58-1.47-2.81c-3.6-6.887-10.38-10.617-21.63-11.89-6.31-.713-7.96-1.828-3.27-2.21 4.33-.353 14.86-4.132 17.94-6.44 1.54-1.158 4.45-3.65 6.46-5.543l3.65-3.438.72 2.354c1.53 5.017 5.3 7.014 9.9 5.248 2.19-.842 1.98-4.62-.44-7.693-2.12-2.696-8.53-4.993-17.48-6.266-9.43-1.35-9.58-1.96-1.13-4.46 10.06-2.99 14.9-6.49 17.15-12.4l1.74-4.57 3.87 3.49c6.67 6.03 14.52 4.96 18.35-2.51 2.63-5.14 4.72-17.86 4.36-26.59-.42-10.22-1.69-11.86-8.648-11.11-2.36.25-4.16.1-4-.34.386-1.04 12.12-10.39 16.16-12.87 3.54-2.18 13.25-5.58 18.89-6.63l3.75-.7v68.49c0 67.59.022 68.5 2.02 69.86 2 1.36 2.012 2.03 1.75 97.37l-.27 96zm-4.163-177.58L214 381.57v-66.047c0-36.326-.155-66.048-.343-66.048-.19 0-2.935.89-6.102 1.98-4.862 1.674-8.65 3.63-13.857 7.152-.513.347.132 2.073 1.435 3.836 2.17 2.94 2.367 4.17 2.367 14.87 0 20.307-4.72 32.1-14.087 35.19-3.77 1.245-10.246.546-12.897-1.393-1.415-1.034-2.34-.548-6.092 3.204-2.433 2.433-4.424 4.554-4.424 4.713 0 .16 1.325.58 2.944.936 3.418.75 9.708 7.28 10.658 11.06 2.057 8.198-10.545 14.612-16.927 8.616l-2.438-2.29-4.632 3.26c-4.01 2.82-4.396 3.39-2.87 4.19.97.51 3.19 2.27 4.93 3.91 3.02 2.84 3.276 2.9 5.474 1.36 1.42-1 4.35-1.62 7.66-1.62 4.58 0 5.77.42 8.27 2.92 4.16 4.16 3.97 8.35-.56 12.62-1.92 1.8-4.89 3.59-6.6 3.97l-3.12.68 2.85 1.75c1.56.96 3.7 2.71 4.74 3.88l1.89 2.13 4.17-4.49c5.48-5.89 9.72-6.18 15.3-1.07l3.73 3.42v8.33c0 8.05-.16 8.61-4.5 16.23-2.48 4.34-7.53 11.13-11.22 15.1l-6.72 7.21 5.56 6.39c16.27 18.69 31.46 49.07 36.24 72.5 1.11 5.43 2.38 11.68 2.82 13.88.45 2.24.92-24.93 1.06-61.88l.28-65.86zm-4.357 87.188c-4.97-13.51-15.37-34.483-19.626-39.58-2.054-2.458-5.45-5.787-7.546-7.398l-3.81-2.93 5.39-4.928c3.5-3.198 6.543-7.263 8.668-11.578l3.274-6.65.282-56.21.28-56.21 6.93 3.18 6.928 3.18.04 66.92c.035 58.38.234 67.13 1.557 68.6 1.288 1.42 1.477 5.52 1.25 27.18l-.267 25.51zm-1.606-40.2c-1.33-.972-1.523-9.312-1.558-67.375-.026-42.54-.4-66.94-1.048-68.15-.555-1.035-1.668-1.883-2.473-1.883-1.267 0-1.467 6.792-1.477 50.25-.013 52.977-.19 55.372-4.73 64.25-1.124 2.202-3.804 5.985-5.953 8.407l-3.908 4.404 2.897 3.094c8.252 8.815 14.668 20.067 18.3 32.095.668 2.212.98-.543 1.187-10.49.24-11.137.02-13.686-1.23-14.602zm15.334 121.092c-.215-9.35-.52-51.287-.676-93.192-.284-75.833-.276-76.198 1.756-77.286 2.024-1.083 2.042-1.666 2.042-67.164 0-62.542.094-66.032 1.75-65.33 7.64 3.238 10.46 3.765 20 3.743 5.637-.013 10.25.164 10.25.393 0 .23-.897 1.63-1.994 3.12-6.29 8.55-4.16 41.58 3.145 48.78 4.21 4.13 11.51 3.68 15.91-.99l3.22-3.42 2.49 4.98c3.02 6.06 7.56 9.26 17.37 12.25l7.23 2.21-7.43 1.32c-4.08.73-9.54 1.95-12.12 2.71-7.75 2.29-11.67 9.71-6.4 12.11 3.62 1.65 6.48.39 8.6-3.77l1.91-3.74 4.69 4.49c5.03 4.81 12.94 8.83 19.43 9.87 5.83.93 5.7 2.02-.31 2.73-8.45.99-14.29 3.45-18.03 7.59-1.88 2.08-3.62 4.4-3.88 5.17-.33.99-1.69.29-4.74-2.46-3.64-3.28-4.74-3.76-7.39-3.23-4.07.81-6.02 2.83-5.21 5.38 1.07 3.39 4.99 5.1 13.23 5.79 4.31.36 9.64.95 11.84 1.31l3.99.66-6.5 2.33c-12.02 4.32-19.69 8.94-22.9 13.78l-2.94 4.44-2.12-4.8c-4.14-9.35-8.95-11.77-13.05-6.57-1.81 2.29-2.11 3.74-1.78 8.75.51 7.89 6.41 17.99 16.95 29l7.65 8-5.99 6.5c-10.62 11.52-22.84 31.51-30.83 50.45-6.58 15.6-8.75 25.62-16.35 75.54l-2.36 15.5zm7.032-49.322c1.16-6.228 3.732-15.678 5.713-21 7.258-19.5 22.127-45.146 32.103-55.366l4.576-4.688-6.4-6.94c-9.22-9.99-15.746-21.41-16.533-28.94-.77-7.37.73-12.33 4.77-15.73 4.85-4.08 9.27-3.5 14.43 1.88l4.23 4.42 2.19-2.34c1.21-1.29 3.53-2.89 5.17-3.57l2.97-1.24-3.83-1.31c-2.11-.72-5.34-2.94-7.18-4.95-2.82-3.06-3.26-4.15-2.73-6.79.85-4.27 3.44-6.62 8.57-7.77 3.56-.8 4.96-.63 8.3 1.02l4.01 1.98 4.03-3.45c2.21-1.9 4.47-3.45 5.01-3.45 1.22 0-6.49-6.9-7.79-6.96-.52-.02-1.96.92-3.21 2.1-3.5 3.28-9.76 2.93-13.38-.75-2.89-2.94-3.31-4.06-3.1-8.26.16-3.2 7.13-9.99 11.05-10.77l3.16-.64-4.7-4.73c-4.47-4.5-4.82-4.66-7.3-3.37-1.43.75-5.2 1.36-8.39 1.37-5.32 0-6.11-.3-9.75-3.75-3.32-3.14-4.3-5.05-6.04-11.75-2.68-10.31-3.49-23.35-1.99-31.96.65-3.73 1.04-6.89.88-7.03-.17-.14-4.24-.49-9.05-.78l-8.75-.52V382.1l-2.5 2.173-2.5 2.173.07 65.757c.03 36.165.44 64.855.9 63.755.45-1.1 1.78-7.09 2.94-13.32zm.128-48.305c-.032-21.593.198-25.824 1.462-26.873 1.306-1.084 1.5-9.925 1.5-68.372l.002-67.128 5.75-2.36c3.16-1.298 6.364-2.604 7.118-2.903 1.153-.457 1.29 7.785.862 52.136-.296 30.636-.122 54.398.415 56.788 1.55 6.894 5.955 14.66 10.985 19.367 2.63 2.46 5.3 4.472 5.933 4.472s-1.177 2.093-4.023 4.652c-9.14 8.218-14.034 16.556-23.682 40.348l-6.285 15.5-.038-25.627zm5.905-.123c2.578-8.703 8.285-19.35 14.21-26.514l6.108-7.38-3.47-3.67c-4.6-4.87-7.25-9.51-9.19-16.1-1.37-4.66-1.59-12.66-1.59-56.25 0-30.19-.37-50.82-.91-50.82-4.24 0-4.08-2.65-4.08 68.28 0 56.53-.22 67.31-1.42 68.64-1.03 1.15-1.51 5.17-1.75 14.83-.18 7.29-.06 13.25.27 13.25s1.16-1.91 1.85-4.25zM331 323.98c-7.193-2.552-23.017-10.42-29.85-14.84-10.31-6.668-14.5-12.93-18.137-27.085-1-3.894-3.23-10.624-4.956-14.957-1.725-4.332-3.007-8-2.847-8.154.16-.153 3.782 3.958 8.05 9.135 8.713 10.57 16.833 17.09 27.418 22.04l7.18 3.35 1.118 5.39c1.33 6.4 6.546 15.47 12.273 21.34 2.26 2.32 3.92 4.4 3.68 4.62-.24.22-2.02-.17-3.94-.85zm-14.508-17.057c-1.344-3.27-2.455-6.73-2.468-7.685-.015-1.134-2.394-2.93-6.847-5.174-5.72-2.88-10.706-6.17-17.83-11.767-.863-.678-.91.173-.19 3.386 1.205 5.382 6.115 13.135 10.372 16.382 3.68 2.813 18.7 11.514 19.12 11.086.15-.15-.82-2.95-2.17-6.22zm29.758 4.52c-4.273-5.228-11.452-12.256-17.498-17.128-23.392-18.852-31.785-32.292-31.734-50.818l.018-6.522 2.76 5c11.5 20.832 25.12 33.288 42.176 38.564 3.04.94 5.506 2.09 5.48 2.57-.026.47-.42 3.48-.875 6.69-.953 6.71.815 15.48 4.937 24.48 1.383 3.02 2.395 5.61 2.248 5.76-.146.14-3.527-3.73-7.512-8.61zM342 291.976c0-4.674-.366-6.5-1.303-6.5-.717 0-5.073-1.823-9.682-4.052-6.572-3.178-10.313-5.928-17.346-12.75l-8.97-8.698 2.9 5.49c3.23 6.13 14.02 17.552 22.4 23.716 3.02 2.228 6.59 5.23 7.92 6.672 1.33 1.443 2.79 2.623 3.25 2.623.45 0 .82-2.925.82-6.5zm32.6-10.077c-18.838-2.93-33.317-8.36-40.87-15.32-8.698-8.02-14.73-24.12-14.73-39.33 0-5.01.366-7.68 1-7.28.55.34 1.004 1.38 1.01 2.31.018 3.15 5.087 12.67 8.8 16.52 5 5.2 11.95 8.56 19.258 9.33l6.076.63 3.102 6.6c3.94 8.38 11.577 15.87 23.3 22.85 8.15 4.85 8.56 5.24 5.387 5.15-1.888-.06-7.438-.72-12.334-1.48zm-11.96-12.35c-3.68-3.81-7.573-8.93-8.654-11.37-1.78-4.03-2.367-4.51-6.226-5.1-6.982-1.07-13.687-3.86-17.848-7.42-4.926-4.22-5.018-2.68-.392 6.57 5.752 11.5 13.64 17.06 30.98 21.87 4.4 1.22 8.186 2.25 8.414 2.29.228.04-2.596-3.05-6.274-6.86zM96.5 280.72c-6.89-.79-13.586-3.553-23.318-9.618-8.035-5.007-11.777-6.705-16.91-7.674-8.33-1.57-23.884-.692-42.522 2.4C6.187 267.09 0 267.794 0 267.398c0-.824.554-.957 35-8.428 14.025-3.04 28.685-6.26 32.58-7.155l7.078-1.624 4.704 2.76c4.126 2.42 5.498 2.71 11.16 2.35 10.302-.65 15.835-5.98 15.925-15.32.03-3.02.138-5.49.24-5.49.104 0 3.25.71 6.99 1.58 12.358 2.87 20.452-.05 37.88-13.67.624-.49 3.08.63 6 2.72 12.625 9.06 25.363 12.98 46.21 14.22 12.602.75 12.687.77 8.246 2.06-15.088 4.39-34.96 13.98-50.248 24.26-4.82 3.24-8.765 5.74-8.765 5.55 0-.19 3.375-3.72 7.5-7.85 6.114-6.11 7.5-8.07 7.5-10.6 0-5.3-2.735-6.8-11.5-6.28-4.752.28-12.854 5.7-25.6 17.13-15.365 13.78-24.44 18.3-34.4 17.16zm14.116-8.705c4.025-2.023 10.31-6.58 15.133-10.977 16.22-14.79 22.39-18.866 30.34-20.06 8.55-1.28 15.38 2.06 16.77 8.2l.63 2.793 8.48-4.19c4.68-2.31 7.82-4.38 7-4.62-.82-.24-4.39-.97-7.94-1.64-7.32-1.37-16.8-5.4-23.42-9.95-2.47-1.7-4.75-3.09-5.06-3.09-.31 0-2.7 1.65-5.32 3.66-2.62 2.01-7.69 5.05-11.26 6.75-5.74 2.74-7.53 3.1-15.25 3.1h-8.76l-.61 3.26c-.92 4.9-5.94 11.15-10.7 13.31-6.14 2.79-16.98 2.64-22.8-.31-4.24-2.14-4.76-2.18-10.84-.87l-6.39 1.38 3.41 1.19c1.88.66 7.24 3.6 11.91 6.54 15.92 10.02 23.37 11.22 34.62 5.57zm127.118-23.903c-2.622-.738-5-1.576-5.29-1.863-.286-.29 1.59-1.06 4.17-1.71 6.435-1.62 9.27-3.23 14.283-8.09 6.403-6.22 9.3-13.38 9.866-24.4.273-5.33-.013-10.86-.695-13.37l-1.16-4.28-4.496 3.23c-5.525 3.96-7.83 7.63-9.455 15.02-2.314 10.53-9.674 14.53-28.457 15.47-14.77.74-24.143-.7-32.956-5.06-6.637-3.28-17.48-11.65-13.044-10.06 17.653 6.29 35.684 5.64 42.937-1.56 2.717-2.7 2.942-3.49 3-10.46.07-8.38 1.396-9.76 4.36-4.55 2.1 3.69 2.972 3.77 3.83.35 1.425-5.67-4.284-8.3-9.02-4.15-1.447 1.27-3.963 5.45-5.592 9.3l-2.96 7-.184-6.25c-.22-7.66-.23-14.25-.02-18.32.23-4.44 8.75-12.48 18.33-17.28 10.55-5.29 18.64-12.03 21.78-18.13 3.49-6.8 3.66-19.86.34-26.13-2.84-5.37-10.47-12.15-17.87-15.9l-5.91-2.99 14.41-.28c13.71-.27 14.58-.17 18 2.09 4.53 2.99 18.16 8.25 26.34 10.18 11.39 2.68 25.42 1.27 34.79-3.51 2.19-1.12 3.97-1.82 3.97-1.56 0 .25-.94 2.06-2.09 4.01-3.1 5.26-14.17 13.04-24.36 17.13-10.46 4.2-14.01 6.51-16.05 10.46-2.09 4.04-1.86 6.38.97 9.74 6.24 7.42 24.29 9.46 41.88 4.73 2.35-.63 1.39.68-5.57 7.61-10.73 10.69-13.51 14.46-16.28 22.14l-2.25 6.22-1.47-3.5c-.81-1.92-2.43-4.35-3.61-5.398-1.99-1.775-2.26-1.79-3.97-.25-2.04 1.85-4.17 9.81-4.17 15.58 0 2.584.92 5.05 2.91 7.8 3.67 5.06 7.51 7.8 15.92 11.35 3.66 1.54 5.99 3 5.17 3.23-17.88 5.04-22.39 7.24-33.99 16.63-9.88 7.99-15.13 10.34-24 10.722-4.28.19-9.54-.248-12.26-1.01zm21.766-6.51c3.3-1.578 9.15-5.417 13-8.533 3.85-3.12 10.264-7.3 14.253-9.29 7.1-3.55 7.205-3.66 5-5.12-4.343-2.89-8.946-7.73-10.84-11.41-3.54-6.87-1.836-20.53 3.29-26.37 3.334-3.8 6.112-4.29 9.762-1.73 1.343.94 2.556 1.24 2.74.69.426-1.28 3.92-6.14 8.024-11.17l3.22-3.96-9.73-.48c-7.88-.39-10.7-.97-14.82-3.07-6.9-3.51-11.41-8.77-11.41-13.29 0-8.84 5.09-14.02 20.08-20.42 10.97-4.69 12.84-6.08 7.13-5.32-5.54.74-19.76-1.24-27.76-3.86-3.83-1.26-10.56-4.1-14.96-6.31-5.65-2.84-8.98-3.94-11.33-3.71l-3.33.32 4.99 5.28c5.86 6.2 8.16 12.53 8.17 22.51.01 10.22-2.31 15.43-10.49 23.57-5.34 5.31-9.13 8.02-15.76 11.23-9.88 4.79-16.27 10.47-16.95 15.06l-.45 3.06 2.45-1.93c1.54-1.22 4.02-1.93 6.68-1.93 7.88 0 12.2 6.23 9.12 13.14-1.71 3.82-6.01 8.85-7.57 8.85-.58 0-1.05.95-1.05 2.12 0 1.16-1.69 3.81-3.76 5.87-2.92 2.91-5.1 4.04-9.75 5.04-10.78 2.31-9.51 3.06 4.5 2.66 13.72-.39 21.39-2.04 25.2-5.42.94-.83 2.24-4.05 2.89-7.15.65-3.1 2.22-7.27 3.48-9.27 2.56-4.05 9.21-9.74 14.2-12.15 3.14-1.52 3.32-1.49 4.75.68 2.53 3.87 3.74 13.43 3.05 24.11-.78 12.03-3.47 18.49-10.72 25.74-5.62 5.62-4.3 6.16 4.64 1.89zM68.668 247.81c-.388-.39-3.478-1.033-6.865-1.433C55.403 245.623 18 231.91 18 230.32c0-.465 1.108-.845 2.46-.845 6.89 0 29.817-6.62 37.174-10.73 3.956-2.212 5.772-2.543 14.2-2.588 7.25-.04 10.666.4 13.666 1.75 8.78 3.953 14.5 10.7 14.5 17.1 0 3.772-3.568 9.193-7.33 11.14-4.35 2.248-14.08 2.338-16.273.15-1.56-1.557-1.564-1.798-.04-3.322 2.155-2.155 2.083-4.792-.186-6.845-2.39-2.17-5.45-2.1-7.51.174-2.25 2.484-2.09 3.79.85 6.957 1.38 1.49 2.36 3.13 2.19 3.65-.42 1.27-2.14 1.78-3.02.91zm23.51-8.36c2.447-2.446 2.897-3.547 2.35-5.75-1.28-5.16-8.375-10.46-16.528-12.346-4.87-1.127-14.897.646-20.122 3.56-2.408 1.342-8.203 3.552-12.878 4.91-7.657 2.224-8.252 2.567-6 3.458 1.375.544 4.975 1.993 8 3.22 3.025 1.228 7.37 2.815 9.653 3.526l4.153 1.293.612-3.26c.712-3.79 3.872-7.09 8.265-8.62 6.106-2.13 15.052 4.77 13.99 10.79-.625 3.55 4.66 3.07 8.506-.77zm15.166-12.952c-9.048-1.93-16.06-7.447-29.635-23.31-4.11-4.794-5.95-6.043-12.79-8.682-8.71-3.357-37.57-11.03-41.49-11.03-1.34 0-2.44-.518-2.44-1.15 0-.825 2.47-.98 8.75-.55 4.81.33 20.9 1.153 35.75 1.828 16.72.76 27.28 1.635 27.73 2.3.4.59.74 2.467.75 4.173.02 4.984 3.85 9.6 10.05 12.117 13.38 5.437 22.57.454 27.94-15.15 2.46-7.16 4.05-9.042 10.37-12.247 4.49-2.275 18.58-5.715 19.53-4.766.22.23-1.71 2.68-4.3 5.45-10.66 11.4-11.24 22.17-1.74 32.33l2.65 2.83-3 2.47c-4.69 3.85-14.4 9.02-21.19 11.29-7.04 2.35-20.8 3.43-26.97 2.11zm16.21-5.02c6.882-1.118 16.995-4.96 23.057-8.76l4.12-2.578-3.08-4.37c-4.13-5.86-4.91-15.64-1.8-22.663 1.13-2.547 1.83-4.632 1.56-4.632-1.29 0-7.02 3.486-8.06 4.9-.64.874-1.96 4.226-2.94 7.448-2.03 6.723-8.87 15.118-14.08 17.296-4.35 1.82-13.9 1.71-19.56-.22C97.18 206 89 197.82 89 194.14c0-3.655-1.73-4.39-10.84-4.602-4.587-.107-9.087-.433-10-.724-.913-.29 1.04 1.01 4.34 2.895 4.44 2.53 7.82 5.68 13 12.12 8.01 9.95 14.62 14.96 22.5 17.05 6.732 1.78 7.928 1.83 15.553.59zm238.99-2.543c-11.44-9.785-17.686-13.974-22.266-14.932-2.665-.558-3.682-.215-5.88 1.983-2.483 2.483-2.623 3.098-2.13 9.324l.528 6.665-3.482-4c-4.645-5.337-6.314-9.63-6.314-16.233v-5.49l-3.715.698c-6.565 1.23-11.513 4.985-15.976 12.12-1 1.595-1.21.85-1.25-4.58-.09-9.232 3.19-15.287 14.07-26.01 8.94-8.81 10.84-12.3 10.86-19.863l.01-3.358 4.61 5.13c6.08 6.76 7.61 7.53 11.26 5.64 2.95-1.53 5.11-5.86 5.11-10.23 0-2.98-7.11-10.83-12.12-13.39-9.52-4.86-21.21-4.16-32.45 1.92-2.99 1.62-5.43 2.65-5.41 2.29.08-2.18 7.8-10.64 12.8-14.04 3.24-2.2 7.92-6.36 10.4-9.24l4.51-5.24 5.7 1.79c7.27 2.28 14.89 1.75 19.99-1.41 3.57-2.21 3.73-2.53 3.13-6.28-.92-5.77-3.82-10.81-8.88-15.47-5.72-5.27-9.64-7.27-15.5-7.9-3.39-.37-5.68 0-8.2 1.32l-3.5 1.83-3.72-5.49c-5.17-7.62-12.98-15.37-21.52-21.34-7.55-5.28-8.53-6.53-3.65-4.66 4.42 1.69 37.75 10.78 47.88 13.05 4.95 1.11 12.71 2.28 17.25 2.61 4.54.32 8.25.96 8.25 1.41 0 1.08 10.13 9.08 10.73 8.48.25-.26-.99-3.18-2.76-6.51-3.3-6.19-6.01-8.15-8.45-6.12-1.09.9-2.97-.03-8.85-4.38-4.1-3.04-10.42-7.15-14.04-9.14-6.12-3.37-6.87-4.17-10.83-11.61-5.12-9.62-15-22.96-27.65-37.36-5.14-5.86-9.19-10.79-9-10.98.42-.41 53.69 35.01 73.85 49.11 7.97 5.58 17.47 11.77 21.1 13.76l6.6 3.62 1.11 6.74c2.37 14.34 12.69 28.79 29.52 41.33 4.48 3.34 8.75 6.42 9.48 6.83 1.32.75-.04 3.6-16.96 35.56-2.61 4.94-5.23 9.14-5.81 9.33-.6.2-1.06-1.05-1.06-2.9 0-1.79-.5-6.12-1.11-9.64-2.49-14.29-10.71-16.25-19.94-4.75-5.98 7.45-10.62 21.56-9.42 28.64.56 3.35 1.25 4.26 4.04 5.43 4.98 2.08 10.48 1.72 15.96-1.06 2.68-1.36 4.99-2.34 5.14-2.19.27.26-8.58 17.66-18.89 37.16-5.273 9.97-5.3 10-9.29 10.23-3.704.22-4.73-.39-13.954-8.28zm23.206-12.32c4.537-8.72 8.25-16.368 8.25-16.997 0-.738-2.265-1.143-6.396-1.143-6.07 0-6.555-.18-9.5-3.535-4.29-4.884-4.5-13.007-.638-24.366 2.893-8.504 6.002-13.448 11.834-18.815 8.82-8.12 16.886-6.87 22.083 3.41.89 1.76 1.617 3.9 1.617 4.75 0 3.49 1.844.84 8.618-12.38l7.12-13.89-6.62-4.85c-16.205-11.86-28.448-27.58-31.078-39.9-.58-2.72-1.274-5.92-1.542-7.1-.3-1.33-2.692-3.39-6.242-5.38-3.166-1.77-14.98-9.62-26.256-17.44-25.53-17.7-39-26.73-39-26.13 0 .25 2.414 3.67 5.364 7.59 2.95 3.92 7.322 10.64 9.716 14.92 3.8 6.81 5.027 8.15 9.678 10.58 2.93 1.53 8.21 4.97 11.74 7.64 5.098 3.86 7.205 4.86 10.27 4.86 2.912 0 4.495.67 6.455 2.75 4.042 4.28 6.852 10.58 7.494 16.8.582 5.64.567 5.67-1.815 4.95-4.984-1.51-8.855-3.77-12.678-7.41-3.747-3.57-4.458-3.82-13.992-4.98-5.524-.67-16.836-2.9-25.138-4.95-8.302-2-15.094-3.4-15.094-3.06 0 .34.952 1.47 2.116 2.52 1.164 1.05 3.42 3.79 5.01 6.1 2.756 3.99 3.04 4.14 5.948 3.13 3.953-1.38 12.1-.29 17.17 2.3 5.284 2.69 12.346 9.32 15.288 14.34 3.2 5.46 5.022 14.02 3.63 17.07-1.51 3.31-9.117 7.43-15.03 8.13-2.79.33-7.845.05-11.232-.61l-6.16-1.22-4.254 4.82-4.255 4.82 7.14.58c3.93.32 8.81 1.3 10.87 2.19 4.39 1.89 13.34 10 15.36 13.9 3.31 6.39.7 15.29-5.73 19.54-4.43 2.93-8.78 2.64-12.49-.85l-2.23-2.1-1.42 3.41c-.78 1.87-4.29 5.99-7.81 9.15-6.11 5.49-11.89 12.19-11.89 13.77 0 .4 1.47.33 3.26-.16 1.79-.5 6.7-1.27 10.89-1.72 6.1-.66 7.54-.56 7.14.48-.27.71-.85 1.3-1.29 1.3-1.11 0-2.99 5.73-2.99 9.15 0 3.48.65 3.57 3.12.42 1.05-1.34 3.48-2.95 5.4-3.58 6.76-2.24 14.21 1.74 31.38 16.75 3.94 3.43 7.93 6.24 8.88 6.24 1.21 0 4.18-4.72 9.98-15.86zM171 208.225c0-.137.953-2.725 2.117-5.75 2.91-7.565 3.685-21.197 1.558-27.44-2.21-6.487-6.87-11.99-12.447-14.7-8.45-4.105-23.495-2.356-36.407 4.232-2.1 1.072-3.82 1.7-3.82 1.4 0-.303 1.84-2.87 4.08-5.702 4.74-5.995 7.55-11.21 9.51-17.67 2.14-7.036 1.75-11.15-1.73-18.21-4-8.122-18.14-22.4-29.15-29.426-4.29-2.75-8.79-5.81-10-6.81l-2.19-1.82 2.5.52c19.75 4.12 32.31 5.82 46.64 6.33l16.14.57-3.81 3.63c-2.1 1.99-4.11 4.79-4.46 6.22-1.85 7.36 6.72 21.25 11.9 19.26 2.6-1 4.6-5.82 4.61-11.1.02-12.18 4.38-17.81 15.96-20.59 4.03-.97 7.56-1.52 7.85-1.24.29.29-.45 1.56-1.64 2.83-2.37 2.53-2.89 7.56-.97 9.48 1.82 1.81 5.61 1.44 6.73-.67.55-1.03 1.48-3.99 2.06-6.57 1.97-8.8-1.92-16.03-9.29-17.22-5.06-.82-7.95.14-11.6 3.87-2.29 2.34-3.53 2.97-4.49 2.26-5.14-3.78-6.98-4.77-10.13-5.48-5.89-1.33-10.35.56-16.76 7.1-3.18 3.25-6.04 5.9-6.35 5.9-.56 0-.24-1.69 1.69-9.06 1.7-6.5 6.71-12.63 14.66-17.95l7.54-5.04-11.12-5.2c-10.34-4.84-14.37-7.78-8.7-6.36 3.46.87 32.05.99 38.57.16 5.48-.7 5.55-.67 17.79 6.44 13.54 7.87 17.5 8.99 18.05 5.11.27-1.87-1.13-3.81-6.3-8.75-3.65-3.5-6.29-6.36-5.86-6.36.43 0 11.37 4.13 24.3 9.17 15.36 5.99 24.02 9.89 24.97 11.25 2.92 4.16 12.65 13.88 16.73 16.7 8.16 5.63 27.4 11.84 46.13 14.89 4.03.66 7.11 1.41 6.85 1.67-.26.26-5.35 1.65-11.31 3.08-9.01 2.17-13.3 2.62-25.342 2.68-14.42.06-14.55.04-25-3.8-5.77-2.13-12.92-4.74-15.88-5.81-3.52-1.27-7.96-1.94-12.86-1.94-6.35 0-8.07.38-11.34 2.55-2.13 1.4-4.54 3.58-5.36 4.84-1.44 2.19-1.22 2.57 5.38 9.44 15.415 16.04 17.764 31.98 6.71 45.54-6.04 7.41-9.854 9.74-15.95 9.74h-5.01l3.58-3.47c4.34-4.22 5.12-6.42 4.28-12.05-1.72-11.49-14.44-19.44-21.69-13.56-3.527 2.86-3.07 10.03 1.48 23.17 5.603 16.203 4.983 21.443-3.91 33.002-5.53 7.19-19.43 19.11-19.43 16.66zm14.81-19.114c4.547-6.02 7.19-11.66 7.19-15.35 0-1.36-1.8-7.84-4-14.4-5.673-16.91-5.39-23.1 1.323-29.11 5.12-4.57 14.487-2.9 21.748 3.89 5.09 4.76 6.77 8.35 7.84 16.74l.65 5.1 3.25-4.43c9.72-13.25 6.89-25.41-9.57-41.21l-8.42-8.08 4.35-4.5c2.39-2.47 6.1-5.8 8.25-7.38 3.68-2.72 4.47-2.88 13.78-2.88 7.67 0 11.16.48 15.6 2.16 23.31 8.76 27.99 9.97 38.33 9.93 5.5-.01 10.49-.33 11.09-.7.6-.37-2.69-1.73-7.3-3.04-15.24-4.31-23.27-9.01-33.63-19.68l-9.19-9.47-13.11-5.09c-7.21-2.8-13.26-5.09-13.44-5.09-.18 0-.09 1.76.19 3.9.46 3.4.19 4.12-2.11 5.63-4.2 2.75-9.65 1.23-22.6-6.32l-11.5-6.7-12 .5-12 .5 4.43 2.5c2.44 1.38 4.55 2.95 4.7 3.5.16.55-2.34 2.3-5.54 3.89-3.2 1.59-7.57 4.39-9.7 6.22l-3.88 3.32 7 .04c5.21.03 7.85.56 10.32 2.06l3.31 2.02 3.15-2.24c4.4-3.13 13.91-3.65 18.73-1.01 7.23 3.95 10.17 12.24 8.02 22.6-2.14 10.29-8.69 14.83-15.42 10.67-3.65-2.25-4.6-3.83-4.6-7.64 0-3.43-3.21-3.14-6.33.57-1.78 2.12-2.69 4.68-3.13 8.75-1.14 10.68-1.62 12.29-4.68 15.78-2.5 2.86-3.75 3.48-6.95 3.48-7.07 0-14.49-9.71-15.6-20.4-.3-2.97-.07-6.14.54-7.28 1.04-1.94.71-2.03-10.13-2.65-6.16-.35-13-.94-15.2-1.32l-4-.68 5 4.26c10.03 8.53 17.98 18.82 20.48 26.47 1.73 5.3.84 15.98-1.84 22.03-1.19 2.69-2 5.05-1.79 5.26.2.2 2.77-.15 5.71-.78 6.82-1.46 16.75-.54 21.77 2.02 5.36 2.73 12.67 11.13 14.59 16.77.99 2.88 1.6 8.05 1.6 13.49 0 4.856.17 8.826.38 8.826s2.2-2.414 4.43-5.364zM95 187.98c0-.275.225-.5.5-.5s.5.225.5.5-.225.5-.5.5-.5-.225-.5-.5zM248.14 56.33c-7.53-2.166-16.88-9.826-23.755-19.46-4.435-6.217-11.942-21.168-11.067-22.043.256-.256 2.357 1.778 4.67 4.52 5.942 7.05 15.124 13.97 21.508 16.214 10.565 3.72 20.965 2.08 36.13-5.68 14.548-7.44 21.353-6.59 31.832 3.98C311.845 38.28 320 49.31 320 50.82c0 .28-2.68-.874-5.953-2.562-9.512-4.906-16.27-4.304-31.828 2.836-12.95 5.94-25.13 7.81-34.08 5.232zm19.4-5.39c3.278-.847 8.885-2.923 12.46-4.614 8.265-3.91 15.224-5.82 21.25-5.836 2.612-.007 4.75-.43 4.75-.94 0-1.304-6.773-6.736-10.758-8.627-4.32-2.05-7.452-1.34-18.503 4.197-10.82 5.42-18.08 7.372-27.2 7.315-6.29-.036-8.71-.56-16.04-3.48-1.74-.69-1.67-.43.5 1.97 3.35 3.72 10.18 8.36 14.76 10.04 5.02 1.848 11.57 1.84 18.77-.02z"/>
</svg>
